<?xml version="1.0" encoding="UTF-8" standalone="no"?>
<!DOCTYPE svg PUBLIC "-//W3C//DTD SVG 1.1//EN" "http://www.w3.org/Graphics/SVG/1.1/DTD/svg11.dtd">
<svg width="100%" height="100%" viewBox="0 0 1890 1890" version="1.1" xmlns="http://www.w3.org/2000/svg" xmlns:xlink="http://www.w3.org/1999/xlink" xml:space="preserve" xmlns:serif="http://www.serif.com/" style="fill-rule:evenodd;clip-rule:evenodd;stroke-linejoin:round;stroke-miterlimit:2;">
    <g transform="matrix(1,0,0,1,3.63101,70.8561)">
        <g transform="matrix(0.0190508,0,0,0.0190508,494.613,1613.05)">
            <text x="0px" y="0px" style="font-family:'Arial-BoldMT', 'Arial', sans-serif;font-weight:700;font-size:13122.8px;">macOS</text>
        </g>
        <g transform="matrix(0.0142881,0,0,0.0142881,15.1293,-43.5414)">
            <path d="M102016,70100.8C100627,74551.4 98437.7,79002.1 95446.8,83452.7C90853.8,90431.3 86278.5,93920.6 81721,93920.6C79976.4,93920.6 77484,93350.9 74243.9,92211.6C71181.9,91072.2 68493.7,90502.5 66179.4,90502.5C64007.5,90502.5 61479.5,91090 58595.5,92265C55711.5,93475.5 53361.6,94080.8 51545.7,94080.8C46133.8,94080.8 40775.2,89470 35470,80248.2C30236.1,70955.3 27619.1,62000.6 27619.1,53384.1C27619.1,45266.2 29630.8,38608 33654.2,33409.6C37677.5,28282.5 42733.5,25718.9 48822,25718.9C51385.5,25718.9 54536.6,26253 58275.1,27321.1C61978.1,28389.3 64434.8,28923.4 65645.4,28923.4C67247.6,28923.4 69793.4,28318.1 73282.7,27107.5C76914.4,25896.9 79994.2,25291.6 82522.2,25291.6C86759.2,25291.6 90551.1,26448.8 93898,28763.1C95749.4,30044.9 97600.9,31825.2 99452.4,34103.9C96639.6,36489.4 94610.1,38590.1 93363.9,40406C91049.6,43752.8 89892.4,47438 89892.4,51461.4C89892.4,55876.4 91120.8,59846.4 93577.5,63371.3C96034.3,66896.2 98847.1,69139.3 102016,70100.6L102016,70100.7L102016,70100.8L102016,70100.8ZM81934.8,7453.7C81934.8,9625.61 81418.5,12046.7 80386,14717.1C79317.8,17387.5 77662.2,19844.2 75419.1,22087.4C73496.4,24010 71573.7,25291.8 69651,25932.7C68333.6,26324.4 66482.2,26627 64096.6,26840.7C64203.4,21535.5 65592,16960.2 68262.4,13114.9C70897.2,9305.11 75347.8,6670.35 81614.3,5210.52C81649.9,5317.34 81694.4,5513.16 81747.8,5798.01C81801.2,6082.85 81845.7,6278.68 81881.3,6385.49C81881.3,6527.92 81890.2,6705.94 81908,6919.57C81925.8,7133.2 81934.7,7311.22 81934.7,7453.65L81934.8,7453.66L81934.8,7453.7Z" style="fill-rule:nonzero;"/>
        </g>
    </g>
</svg>
