<?xml version="1.0" encoding="UTF-8" standalone="no"?>
<!DOCTYPE svg PUBLIC "-//W3C//DTD SVG 1.1//EN" "http://www.w3.org/Graphics/SVG/1.1/DTD/svg11.dtd">
<svg width="100%" height="100%" viewBox="0 0 1890 1890" version="1.1" xmlns="http://www.w3.org/2000/svg" xmlns:xlink="http://www.w3.org/1999/xlink" xml:space="preserve" xmlns:serif="http://www.serif.com/" style="fill-rule:evenodd;clip-rule:evenodd;stroke-linejoin:round;stroke-miterlimit:2;">
    <g transform="matrix(1,0,0,1,3.34977,9.58457)">
        <g transform="matrix(0.012541,0,0,0.0128888,128.652,123.663)">
            <path d="M57177.1,55238.3L57177.1,88399.3L22437.2,83611.1L22437.2,55238.3L57177.1,55238.3ZM57177.1,17391.1L57177.1,50959.5L22437.2,50959.5L22437.2,22179.3L57177.1,17391.1ZM107199,55238.2L107199,95275.8L60998,88908.5L60998,55238.2L107199,55238.2L107199,55238.2ZM107199,10514.5L107199,50959.7L60998,50959.7L60998,16881.9L107199,10514.6L107199,10514.5Z" style="fill-rule:nonzero;"/>
        </g>
        <g transform="matrix(0.0139344,0,0,0.0139344,399.723,1672.92)">
            <g>
                <g transform="matrix(17941.2,0,0,17941.2,78571.6,0)">
                </g>
                <text x="0px" y="0px" style="font-family:'Arial-BoldMT', 'Arial', sans-serif;font-weight:700;font-size:17941.2px;">W<tspan x="16776.1px 21760.7px " y="0px 0px ">in</tspan>dows</text>
            </g>
        </g>
    </g>
</svg>
