<?xml version="1.0" encoding="UTF-8" standalone="no"?><!DOCTYPE svg PUBLIC "-//W3C//DTD SVG 1.1//EN" "http://www.w3.org/Graphics/SVG/1.1/DTD/svg11.dtd"><svg width="100%" height="100%" viewBox="0 0 129638 129638" version="1.1" xmlns="http://www.w3.org/2000/svg" xmlns:xlink="http://www.w3.org/1999/xlink" xml:space="preserve" xmlns:serif="http://www.serif.com/" style="fill-rule:evenodd;clip-rule:evenodd;stroke-linejoin:round;stroke-miterlimit:2;"><g><g><text x="2209.7px" y="121765px" style="font-family:'Arial-BoldMT', 'Arial', sans-serif;font-weight:700;font-size:18333.3px;">macOS 10.13+</text></g></g><path d="M102016,70100.8c-1388.61,4450.62 -3578.32,8901.25 -6569.17,13351.9c-4593.04,6978.58 -9168.29,10467.9 -13725.8,10467.9c-1744.65,0 -4237,-569.671 -7477.08,-1709.05c-3062.03,-1139.36 -5750.21,-1709.05 -8064.54,-1709.05c-2171.91,0 -4699.88,587.5 -7583.88,1762.47c-2884.01,1210.57 -5233.96,1815.85 -7049.79,1815.85c-5411.96,0 -10770.5,-4610.83 -16075.7,-13832.6c-5233.96,-9292.92 -7850.92,-18247.6 -7850.92,-26864.1c0,-8117.96 2011.69,-14776.1 6035.04,-19974.5c4023.37,-5127.12 9079.29,-7690.71 15167.8,-7690.71c2563.56,0 5714.62,534.063 9453.17,1602.23c3702.93,1068.16 6159.71,1602.22 7370.25,1602.22c1602.22,-0 4147.99,-605.279 7637.29,-1815.85c3631.72,-1210.58 6711.58,-1815.87 9239.5,-1815.87c4237,0 8028.96,1157.17 11375.8,3471.49c1851.48,1281.79 3702.93,3062.05 5554.38,5340.75c-2812.8,2385.54 -4842.29,4486.25 -6088.46,6302.08c-2314.34,3346.88 -3471.49,7032 -3471.49,11055.4c-0,4415 1228.37,8385 3685.12,11909.9c2456.75,3524.91 5269.54,5768.04 8438.42,6729.38l0,0.088l-0.004,0.091Zm-20081.2,-62647.1c0,2171.91 -516.271,4593.04 -1548.82,7263.42c-1068.14,2670.38 -2723.78,5127.12 -4966.92,7370.25c-1922.67,1922.67 -3845.35,3204.45 -5768.04,3845.35c-1317.38,391.645 -3168.84,694.287 -5554.42,907.933c106.825,-5305.17 1495.42,-9880.42 4165.8,-13725.8c2634.78,-3809.74 7085.42,-6444.5 13351.9,-7904.33c35.591,106.82 80.104,302.637 133.508,587.483c53.421,284.842 97.917,480.675 133.525,587.483c0,142.429 8.904,320.45 26.7,534.079c17.796,213.63 26.704,391.65 26.704,534.08l0.042,0.008Z" style="fill-rule:nonzero;"/></svg>