<?xml version="1.0" encoding="UTF-8" standalone="no"?><!DOCTYPE svg PUBLIC "-//W3C//DTD SVG 1.1//EN" "http://www.w3.org/Graphics/SVG/1.1/DTD/svg11.dtd"><svg width="100%" height="100%" viewBox="0 0 31113 31113" version="1.1" xmlns="http://www.w3.org/2000/svg" xmlns:xlink="http://www.w3.org/1999/xlink" xml:space="preserve" xmlns:serif="http://www.serif.com/" style="fill-rule:evenodd;clip-rule:evenodd;stroke-linejoin:round;stroke-miterlimit:2;"><g><text x="500px" y="29223.6px" style="font-family:'Lato-Bold', 'Lato', sans-serif;font-weight:700;font-size:4583.33px;">mac<tspan x="8832.5px " y="29223.6px ">O</tspan>S 10.13+</text></g><path d="M24483.9,16824.2c-333.267,1068.15 -858.796,2136.3 -1576.6,3204.46c-1102.33,1674.86 -2200.39,2512.29 -3294.18,2512.29c-418.717,-0 -1016.88,-136.721 -1794.5,-410.171c-734.888,-273.446 -1380.05,-410.171 -1935.49,-410.171c-521.258,-0 -1127.97,141 -1820.13,422.992c-692.163,290.537 -1256.15,435.804 -1691.95,435.804c-1298.87,-0 -2584.93,-1106.6 -3858.16,-3319.82c-1256.15,-2230.3 -1884.22,-4379.42 -1884.22,-6447.38c0,-1948.31 482.805,-3546.27 1448.41,-4793.88c965.608,-1230.51 2179.03,-1845.77 3640.26,-1845.77c615.255,0 1371.51,128.175 2268.76,384.534c888.704,256.358 1478.33,384.533 1768.86,384.533c384.533,0 995.517,-145.267 1832.95,-435.804c871.612,-290.538 1610.78,-435.808 2217.48,-435.808c1016.88,-0 1926.95,277.72 2730.2,833.158c444.354,307.629 888.704,734.892 1333.05,1281.78c-675.071,572.529 -1162.15,1076.7 -1461.23,1512.5c-555.442,803.25 -833.158,1687.68 -833.158,2653.29c-0,1059.6 294.808,2012.4 884.429,2858.37c589.621,845.979 1264.69,1384.33 2025.22,1615.05l-0,0.021Zm-4819.5,-15035.3c-0,521.258 -123.905,1102.33 -371.717,1743.22c-256.354,640.891 -653.708,1230.51 -1192.06,1768.86c-461.442,461.442 -922.884,769.067 -1384.33,922.884c-316.171,93.995 -760.521,166.629 -1333.06,217.904c25.638,-1273.24 358.9,-2371.3 999.792,-3294.18c632.346,-914.337 1700.5,-1546.68 3204.46,-1897.04c8.542,25.637 19.225,72.633 32.042,140.996c12.821,68.362 23.5,115.362 32.046,140.996c-0,34.183 2.137,76.908 6.408,128.179c4.271,51.271 6.409,93.996 6.409,128.179Z" style="fill-rule:nonzero;"/></svg>