<?xml version="1.0" encoding="UTF-8" standalone="no"?><!DOCTYPE svg PUBLIC "-//W3C//DTD SVG 1.1//EN" "http://www.w3.org/Graphics/SVG/1.1/DTD/svg11.dtd"><svg width="100%" height="100%" viewBox="0 0 129638 129638" version="1.1" xmlns="http://www.w3.org/2000/svg" xmlns:xlink="http://www.w3.org/1999/xlink" xml:space="preserve" xmlns:serif="http://www.serif.com/" style="fill-rule:evenodd;clip-rule:evenodd;stroke-linejoin:round;stroke-miterlimit:2;"><text x="39758.1px" y="119961px" style="font-family:'Arial-BoldMT', 'Arial', sans-serif;font-weight:700;font-size:18333.3px;">Linux</text><path d="M59745.8,28279.2c-353.35,32.116 -602.308,200.762 -746.858,505.921c-144.55,305.175 -281.075,457.758 -409.567,457.758c-160.608,32.121 -240.92,-48.192 -240.92,-240.917c-0,-385.471 305.175,-626.391 915.504,-722.762l481.841,-0Zm4192,674.566c-128.491,32.117 -313.195,-72.275 -554.116,-313.196c-240.917,-240.92 -521.996,-313.191 -843.209,-216.82c770.938,-353.35 1284.9,-321.234 1541.88,96.37c96.371,192.725 48.175,337.275 -144.55,433.646Zm-16912.5,20574.5c-128.487,-32.12 -224.862,16.075 -289.112,144.567c-64.238,128.487 -136.513,329.254 -216.825,602.292c-80.313,273.037 -168.646,489.858 -265.017,650.483c-96.354,160.608 -256.979,369.396 -481.825,626.392c-321.229,353.333 -337.291,546.075 -48.192,578.191c128.488,32.121 329.255,-80.312 602.309,-337.291c273.037,-256.98 473.8,-546.075 602.291,-867.292c32.117,-96.371 64.238,-208.8 96.371,-337.292c32.117,-128.487 64.238,-224.858 96.355,-289.096c32.137,-64.254 56.216,-136.529 72.274,-216.841c16.075,-80.292 24.096,-144.546 24.096,-192.725l0,-144.546l-48.175,-120.471l-144.55,-96.371Zm41197,17298c0,-578.209 -883.371,-1252.78 -2650.1,-2023.71c128.487,-481.842 248.958,-923.525 361.387,-1325.05c112.43,-401.546 192.725,-819.129 240.921,-1252.78c48.175,-433.667 96.354,-778.979 144.55,-1035.96c48.175,-256.979 56.213,-618.35 24.096,-1084.13c-32.137,-465.783 -48.196,-778.975 -48.196,-939.583c0,-160.608 -56.212,-513.958 -168.646,-1060.04c-112.429,-546.092 -176.666,-875.346 -192.725,-987.775c-16.058,-112.434 -96.37,-513.959 -240.92,-1204.58c-144.546,-690.641 -232.88,-1116.27 -265.017,-1276.88c-321.217,-1541.88 -1076.09,-3196.18 -2264.63,-4962.92c-1188.53,-1766.74 -2344.93,-2971.34 -3469.22,-3613.79c770.937,642.45 1686.42,1975.54 2746.47,3999.25c2794.65,5203.83 3661.96,9668.88 2601.91,13395.1c-353.354,1284.89 -1156.41,1959.48 -2409.19,2023.72c-995.796,128.488 -1614.15,-168.646 -1855.07,-891.408c-240.921,-722.742 -369.412,-2063.85 -385.471,-4023.33c-16.058,-1959.48 -200.762,-3678.02 -554.112,-5155.67c-289.1,-1252.78 -602.292,-2361.01 -939.584,-3324.67c-337.291,-963.679 -650.487,-1694.46 -939.583,-2192.36c-289.1,-497.9 -538.058,-891.405 -746.842,-1180.51c-208.8,-289.095 -417.604,-530.016 -626.387,-722.758c-208.804,-192.725 -329.254,-305.158 -361.392,-337.275c-449.704,-1991.6 -947.604,-3645.9 -1493.7,-4962.92c-546.075,-1317.01 -1019.88,-2216.44 -1421.41,-2698.28c-401.542,-481.837 -778.975,-1011.85 -1132.33,-1590.07c-353.35,-578.195 -594.271,-1220.66 -722.758,-1927.35c-128.492,-674.567 -32.121,-1533.86 289.112,-2577.83c321.217,-1043.97 393.492,-1839.01 216.825,-2385.1c-176.666,-546.075 -891.408,-947.604 -2144.19,-1204.58c-481.821,-96.371 -1196.56,-385.467 -2144.17,-867.308c-947.621,-481.842 -1517.79,-738.821 -1710.52,-770.938c-256.979,-32.117 -433.662,-449.721 -530.016,-1252.78c-96.371,-803.054 32.12,-1622.19 385.47,-2457.36c353.334,-835.192 931.546,-1268.86 1734.6,-1300.98c1188.54,-96.371 2007.65,385.47 2457.38,1445.52c449.72,1060.04 513.958,1991.58 192.725,2794.66c-353.334,610.329 -385.471,1035.95 -96.355,1276.86c289.096,240.921 770.938,248.958 1445.51,24.096c417.587,-128.488 626.387,-706.684 626.387,-1734.62l0,-1782.8c-160.608,-963.662 -377.429,-1766.74 -650.487,-2409.18c-273.038,-642.45 -610.313,-1132.31 -1011.86,-1469.6c-401.529,-337.292 -778.958,-578.213 -1132.31,-722.763c-353.35,-144.55 -786.996,-265 -1300.95,-361.37c-3437.12,256.979 -4866.58,2409.18 -4288.33,6456.62c0,481.841 -16.075,722.762 -48.196,722.762c-289.095,-289.096 -762.895,-457.742 -1421.42,-505.937c-658.509,-48.18 -1188.53,-40.159 -1590.05,24.095c-401.526,64.255 -650.484,-16.058 -746.859,-240.92c32.138,-1830.97 -224.841,-3276.49 -770.937,-4336.54c-546.075,-1060.05 -1268.83,-1606.13 -2168.26,-1638.25c-867.308,-32.137 -1533.85,409.546 -1999.62,1325.05c-465.784,915.488 -730.8,1871.13 -795.038,2866.93c-32.117,481.838 24.1,1076.09 168.646,1782.79c144.55,706.704 353.354,1309 626.392,1806.9c273.037,497.896 521.979,714.721 746.837,650.483c321.233,-96.371 578.213,-321.233 770.938,-674.583c128.491,-289.096 16.062,-417.588 -337.271,-385.467c-224.863,0 -473.821,-232.883 -746.859,-698.662c-273.037,-465.784 -425.625,-1003.82 -457.745,-1614.15c-32.117,-706.705 112.433,-1300.95 433.645,-1782.8c321.234,-481.842 867.313,-706.7 1638.25,-674.584c546.092,0 979.738,337.292 1300.97,1011.86c321.217,674.583 473.8,1300.97 457.742,1879.17c-16.058,578.213 -40.154,931.563 -72.275,1060.05c-706.7,481.825 -1204.6,947.605 -1493.7,1397.33c-256.979,385.466 -698.662,762.895 -1325.05,1132.31c-626.388,369.408 -955.642,570.171 -987.758,602.308c-417.605,449.704 -666.546,883.367 -746.859,1300.95c-80.296,417.588 40.159,706.684 361.388,867.309c449.708,256.979 851.233,570.175 1204.58,939.583c353.354,369.413 610.333,674.567 770.938,915.488c160.625,240.921 457.745,449.721 891.408,626.387c433.646,176.667 1003.82,281.079 1710.52,313.196c1509.76,64.237 3148,-176.667 4914.75,-722.763c64.237,-32.116 433.646,-144.545 1108.23,-337.291c674.567,-192.725 1228.68,-361.371 1662.33,-505.917c433.663,-144.55 907.463,-353.354 1421.42,-626.392c513.958,-273.037 851.25,-554.112 1011.86,-843.212c289.1,-449.721 610.329,-578.208 963.684,-385.467c160.604,96.371 265,232.884 313.191,409.567c48.179,176.667 0,369.392 -144.546,578.192c-144.55,208.804 -409.566,361.375 -795.037,457.745c-642.446,192.742 -1549.91,538.055 -2722.38,1035.95c-1172.48,497.9 -1903.26,811.091 -2192.36,939.583c-1413.39,610.329 -2537.68,979.737 -3372.87,1108.23c-803.054,160.608 -2071.89,128.488 -3806.51,-96.371c-321.233,-64.254 -465.783,-32.121 -433.662,96.371c32.133,128.488 305.171,433.646 819.129,915.488c803.058,738.816 1879.17,1092.17 3228.32,1060.03c546.075,-32.117 1124.29,-144.55 1734.6,-337.275c610.329,-192.742 1188.54,-417.604 1734.62,-674.583c546.075,-256.98 1084.13,-538.038 1614.14,-843.213c530.038,-305.154 1011.86,-578.196 1445.52,-819.112c433.646,-240.921 827.154,-433.663 1180.5,-578.213c353.35,-144.55 634.413,-184.704 843.213,-120.45c208.804,64.234 345.312,240.917 409.567,530.017c-0,64.233 -16.059,136.508 -48.196,216.821c-32.117,80.312 -96.354,160.608 -192.725,240.921c-96.371,80.312 -192.742,152.587 -289.113,216.82c-96.354,64.255 -232.883,144.55 -409.55,240.921c-176.683,96.371 -321.233,168.646 -433.662,216.825c-112.434,48.192 -273.038,128.488 -481.842,240.921c-208.783,112.429 -361.371,184.704 -457.742,216.821c-899.429,449.721 -1983.56,1156.42 -3252.39,2120.09c-1268.84,963.679 -2336.91,1654.3 -3204.22,2071.91c-867.309,417.587 -1654.3,433.645 -2361,48.179c-674.567,-353.35 -1686.42,-1525.82 -3035.58,-3517.41c-706.684,-995.8 -1108.21,-1349.15 -1204.58,-1060.04c-32.133,96.371 -48.196,256.979 -48.196,481.841c0,803.055 -240.916,1710.52 -722.741,2722.38c-481.842,1011.86 -955.642,1903.25 -1421.42,2674.18c-465.779,770.954 -803.071,1702.5 -1011.85,2794.67c-208.805,1092.15 -24.1,2104.01 554.112,3035.57c-738.821,192.729 -1742.65,1638.25 -3011.49,4336.54c-1268.84,2698.28 -2031.74,4962.92 -2288.72,6793.92c-64.254,578.208 -88.35,1686.42 -72.275,3324.67c16.058,1638.25 -72.275,2585.87 -265.017,2842.85c-256.979,770.937 -722.758,819.112 -1397.33,144.546c-1027.92,-995.796 -1606.13,-2505.55 -1734.62,-4529.29c-64.233,-899.425 0,-1798.85 192.746,-2698.28c128.488,-610.329 112.429,-899.429 -48.196,-867.309c-64.237,32.117 -128.487,112.43 -192.725,240.921c-1156.41,2087.95 -995.8,4754.12 481.842,7998.5c160.604,385.471 562.133,835.192 1204.58,1349.15c642.446,513.959 1027.92,835.192 1156.4,963.679c642.45,738.804 2312.83,2192.35 5011.12,4360.62c2698.28,2168.26 4192,3396.95 4481.08,3686.04c513.958,481.842 795.016,1092.17 843.212,1830.99c48.179,738.816 -176.683,1429.44 -674.583,2071.89c-497.883,642.446 -1228.68,1011.86 -2192.34,1108.23c256.979,481.841 722.742,1196.56 1397.33,2144.18c674.567,947.604 1124.29,1814.91 1349.13,2601.91c224.858,787.017 337.291,1919.33 337.291,3396.96c1477.64,-770.938 1590.07,-2248.58 337.292,-4432.92c-128.492,-256.979 -297.138,-513.975 -505.938,-770.954c-208.787,-256.979 -361.375,-449.704 -457.745,-578.192c-96.371,-128.492 -128.488,-224.862 -96.371,-289.1c96.371,-160.625 305.175,-313.192 626.387,-457.758c321.234,-144.55 642.45,-104.392 963.684,120.466c1477.64,1670.37 4143.8,2248.58 7998.5,1734.62c4272.29,-481.837 7115.12,-1879.16 8528.54,-4192c738.821,-1220.64 1284.9,-1702.48 1638.25,-1445.5c385.471,192.729 546.079,1027.92 481.842,2505.56c-32.117,803.054 -401.529,2280.7 -1108.23,4432.92c-289.096,738.817 -385.471,1341.11 -289.096,1806.89c96.371,465.779 481.837,714.72 1156.4,746.841c96.371,-610.333 329.254,-1847.03 698.662,-3710.14c369.413,-1863.11 586.234,-3308.61 650.488,-4336.54c64.237,-674.563 -40.158,-1855.07 -313.196,-3541.49c-273.037,-1686.44 -393.504,-3244.38 -361.387,-4673.83c32.133,-1429.46 401.529,-2561.77 1108.23,-3396.96c481.841,-578.196 1300.95,-867.313 2457.38,-867.313c32.117,-1188.52 586.233,-2039.77 1662.33,-2553.73c1076.11,-513.958 2240.55,-682.604 3493.33,-505.921c1252.76,176.667 2216.44,538.038 2891.01,1084.13l-0.063,-0.016Zm-30259.4,-39847.9c96.371,-546.092 56.213,-1027.93 -120.454,-1445.52c-176.667,-417.583 -361.371,-658.504 -554.113,-722.758c-289.095,-64.238 -433.645,48.196 -433.645,337.291c64.237,160.609 144.55,256.98 240.904,289.096c321.229,0 433.662,240.921 337.291,722.763c-96.375,642.446 32.117,963.679 385.467,963.679c96.371,-0 144.55,-48.196 144.55,-144.55Zm20189.1,9492.17c-64.254,-256.98 -168.645,-441.684 -313.196,-554.113c-144.566,-112.429 -353.349,-192.742 -626.387,-240.921c-273.058,-48.175 -505.937,-136.529 -698.662,-265.016c-160.625,-96.355 -313.196,-224.846 -457.763,-385.471c-144.55,-160.604 -256.979,-289.096 -337.275,-385.467c-80.313,-96.354 -168.646,-200.762 -265.017,-313.196c-96.37,-112.429 -160.608,-176.666 -192.725,-192.725c-32.137,-16.058 -96.37,8.021 -192.741,72.275c-449.709,513.959 -337.292,1212.62 337.291,2095.99c674.563,883.371 1300.95,1389.31 1879.17,1517.8c289.096,32.12 521.979,-96.371 698.663,-385.467c176.666,-289.117 232.879,-610.329 168.645,-963.683Zm-8576.71,-10263.1c0,-353.334 -80.296,-666.525 -240.9,-939.584c-160.625,-273.037 -337.292,-473.8 -530.037,-602.291c-192.726,-128.488 -337.275,-176.667 -433.646,-144.546c-192.742,-0 -321.234,32.116 -385.467,96.371c-64.254,64.233 -64.254,128.487 0,192.725c64.233,64.254 144.546,112.429 240.921,144.566c449.704,128.488 738.817,626.371 867.308,1493.68c0,96.371 128.488,64.255 385.467,-96.354c64.237,-64.254 96.354,-112.429 96.354,-144.566Zm2601.93,-11226.8c0,-64.238 -40.158,-144.55 -120.454,-240.921c-80.313,-96.354 -224.858,-208.783 -433.663,-337.275c-208.783,-128.487 -361.37,-224.858 -457.741,-289.112c-481.842,-481.825 -867.309,-722.746 -1156.41,-722.746c-289.095,32.121 -473.8,152.571 -554.112,361.375c-80.313,208.8 -96.371,417.583 -48.179,626.387c48.179,208.8 40.141,409.567 -24.096,602.292c-32.117,128.487 -128.488,297.133 -289.096,505.937c-160.625,208.8 -256.979,353.35 -289.117,433.646c-32.116,80.313 16.08,216.842 144.567,409.567c128.492,96.371 256.979,96.371 385.471,-0c128.487,-96.371 305.154,-240.921 530.017,-433.646c224.858,-192.746 465.762,-337.292 722.758,-433.662c32.121,-32.121 176.667,-48.18 433.646,-48.18c256.979,0 497.9,-32.116 722.762,-96.37c224.842,-64.238 369.409,-176.667 433.646,-337.292Zm27223.8,64614.6c642.45,385.471 1140.35,778.975 1493.7,1180.5c353.35,401.53 546.075,786.996 578.208,1156.41c32.121,369.408 -8.037,730.779 -120.467,1084.13c-112.429,353.35 -361.37,706.704 -746.841,1060.05c-385.467,353.333 -762.917,666.525 -1132.33,939.583c-369.409,273.038 -851.25,570.171 -1445.5,891.388c-594.271,321.233 -1100.19,586.233 -1517.8,795.033c-417.588,208.804 -931.546,457.746 -1541.88,746.842c-610.329,289.117 -1043.97,497.9 -1300.95,626.387c-1220.66,610.334 -2593.89,1509.76 -4119.72,2698.3c-1525.82,1188.53 -2738.44,2216.44 -3637.87,3083.75c-546.075,513.959 -1638.25,827.155 -3276.49,939.584c-1638.25,112.429 -3067.69,-120.45 -4288.33,-698.663c-578.212,-289.096 -1052.02,-666.546 -1421.42,-1132.31c-369.408,-465.783 -634.408,-875.35 -795.033,-1228.7c-160.609,-353.333 -513.959,-666.525 -1060.04,-939.583c-546.075,-273.038 -1300.95,-425.609 -2264.63,-457.742c-1413.39,-32.121 -3501.35,-48.179 -6263.88,-48.179c-610.313,-0 -1525.82,24.1 -2746.46,72.275c-1220.66,48.179 -2152.21,88.333 -2794.67,120.45c-1413.39,32.137 -2690.25,273.058 -3830.59,722.762c-1140.35,449.721 -1999.63,931.563 -2577.83,1445.52c-578.213,513.958 -1276.88,971.7 -2096.01,1373.23c-819.113,401.529 -1678.38,586.234 -2577.81,554.117c-931.562,-32.121 -2714.36,-530.021 -5348.42,-1493.7c-2634.05,-963.679 -4978.96,-1654.3 -7034.83,-2071.89c-610.329,-128.491 -1429.44,-281.075 -2457.36,-457.762c-1027.92,-176.667 -1830.99,-321.213 -2409.19,-433.646c-578.208,-112.429 -1212.62,-265.017 -1903.26,-457.742c-690.625,-192.741 -1228.68,-425.625 -1614.15,-698.662c-385.467,-273.038 -658.504,-586.234 -819.129,-939.584c-321.217,-738.82 -208.788,-1806.89 337.291,-3204.22c546.075,-1397.33 835.188,-2272.67 867.309,-2626.01c32.116,-513.958 -32.121,-1156.42 -192.746,-1927.36c-160.604,-770.938 -321.213,-1453.54 -481.838,-2047.8c-160.608,-594.271 -232.883,-1180.5 -216.825,-1758.72c16.059,-578.191 184.704,-1011.85 505.938,-1300.95c449.704,-385.466 1365.21,-610.329 2746.47,-674.566c1381.25,-64.25 2344.93,-256.996 2891.01,-578.209c963.679,-578.212 1638.25,-1140.35 2023.73,-1686.42c385.466,-546.096 578.195,-1365.21 578.195,-2457.38c674.563,2344.95 160.605,4047.43 -1541.88,5107.5c-1027.92,642.45 -2361.01,883.367 -3999.25,722.742c-1092.17,-96.354 -1782.8,64.254 -2071.89,481.841c-417.605,481.842 -337.292,1397.33 240.916,2746.47c64.238,192.725 192.729,481.842 385.471,867.309c192.725,385.471 329.254,674.566 409.55,867.312c80.313,192.725 152.583,465.763 216.838,819.113c64.237,353.35 80.295,706.7 48.179,1060.05c-0,481.821 -273.038,1268.83 -819.117,2360.99c-546.092,1092.17 -770.954,1863.11 -674.583,2312.83c96.371,546.079 690.641,963.662 1782.8,1252.78c642.45,192.725 1999.64,489.862 4071.53,891.387c2071.91,401.529 3670,730.784 4794.29,987.779c770.938,192.725 1959.46,546.075 3565.59,1060.03c1606.12,513.958 2931.18,883.371 3975.15,1108.23c1043.97,224.846 1935.38,289.1 2674.2,192.725c1381.27,-192.725 2417.21,-642.446 3107.85,-1349.13c690.625,-706.704 1060.03,-1477.64 1108.23,-2312.83c48.175,-835.175 -72.275,-1774.76 -361.391,-2818.75c-289.096,-1043.98 -594.25,-1879.17 -915.484,-2505.56c-321.233,-626.387 -642.45,-1212.62 -963.683,-1758.7c-3886.8,-6103.25 -6601.17,-9990.08 -8143.04,-11660.5c-2184.34,-2377.05 -3999.25,-3019.5 -5444.75,-1927.34c-353.354,289.096 -594.27,48.192 -722.762,-722.762c-96.371,-513.958 -128.488,-1124.27 -96.371,-1830.97c32.117,-931.546 192.742,-1766.74 481.842,-2505.55c289.096,-738.821 674.562,-1493.7 1156.4,-2264.64c481.842,-770.937 835.192,-1445.5 1060.05,-2023.72c256.979,-674.563 682.583,-1830.99 1276.85,-3469.23c594.271,-1638.25 1068.08,-2891.01 1421.42,-3758.32c353.35,-867.309 835.192,-1847.05 1445.5,-2939.22c610.33,-1092.15 1236.72,-1959.46 1879.17,-2601.91c3533.47,-4593.54 5525.08,-7725.46 5974.79,-9395.83c-385.471,-3597.71 -642.45,-8576.71 -770.938,-14937c-64.254,-2891.02 321.217,-5324.29 1156.4,-7299.83c835.175,-1975.52 2537.68,-3653.93 5107.46,-5035.21c1252.78,-674.583 2923.14,-1011.86 5011.12,-1011.86c1702.5,-32.117 3404.98,184.704 5107.5,650.471c1702.48,465.779 3131.93,1132.33 4288.33,1999.63c1830.97,1349.13 3300.57,3300.58 4408.79,5854.33c1108.23,2553.73 1582.03,4922.75 1421.42,7107.08c-160.609,3051.63 321.216,6488.75 1445.5,10311.3c1092.17,3629.85 3228.32,7131.21 6408.46,10504c1766.73,1895.23 3364.83,4513.21 4794.29,7853.96c1429.45,3340.75 2385.09,6408.46 2866.93,9203.08c256.979,1574.01 337.292,2931.18 240.921,4071.53c-96.371,1140.35 -289.096,2031.75 -578.213,2674.2c-289.096,642.446 -610.329,995.8 -963.662,1060.03c-321.234,64.254 -698.663,369.413 -1132.33,915.488c-433.646,546.091 -867.309,1116.27 -1300.95,1710.52c-433.663,594.27 -1084.13,1132.33 -1951.44,1614.17c-867.308,481.842 -1847.05,706.684 -2939.2,674.567c-578.213,-32.121 -1084.15,-112.433 -1517.8,-240.921c-433.646,-128.492 -795.037,-345.312 -1084.13,-650.487c-289.096,-305.155 -505.938,-554.096 -650.488,-746.842c-144.546,-192.725 -329.25,-521.996 -554.112,-987.758c-224.846,-465.78 -369.409,-778.975 -433.646,-939.584c-706.7,-1188.54 -1365.21,-1670.38 -1975.54,-1445.52c-610.329,224.863 -1060.04,1011.86 -1349.15,2361.01c-289.095,1349.15 -176.666,2907.08 337.292,4673.83c642.446,2248.58 658.508,5380.54 48.196,9395.83c-321.233,2087.95 -32.138,3702.12 867.292,4842.46c899.441,1140.35 2071.91,1670.37 3517.41,1590.05c1445.52,-80.296 2810.73,-650.471 4095.62,-1710.52c1895.23,-1574 3332.71,-2642.07 4312.46,-3204.22c979.725,-562.133 2642.07,-1244.74 4987,-2047.81c1702.48,-578.196 2939.2,-1164.42 3710.14,-1758.7c770.937,-594.271 1068.07,-1148.39 891.404,-1662.35c-176.683,-513.958 -578.208,-971.7 -1204.6,-1373.23c-626.387,-401.529 -1453.54,-778.975 -2481.46,-1132.33c-1060.05,-353.333 -1855.07,-1124.29 -2385.1,-2312.81c-530.017,-1188.53 -770.938,-2352.97 -722.742,-3493.32c48.175,-1140.35 297.133,-1903.26 746.842,-2288.73c32.116,995.8 160.604,1903.26 385.466,2722.38c224.863,819.133 457.742,1469.6 698.663,1951.44c240.921,481.838 570.175,939.584 987.779,1373.25c417.587,433.646 754.879,738.821 1011.86,915.488c256.979,176.666 602.292,385.466 1035.94,626.387c433.662,240.921 698.662,393.508 795.033,457.742l-0.029,0.012Z" style="fill-rule:nonzero;"/></svg>