<?xml version="1.0" encoding="UTF-8" standalone="no"?><!DOCTYPE svg PUBLIC "-//W3C//DTD SVG 1.1//EN" "http://www.w3.org/Graphics/SVG/1.1/DTD/svg11.dtd"><svg width="100%" height="100%" viewBox="0 0 31113 31113" version="1.1" xmlns="http://www.w3.org/2000/svg" xmlns:xlink="http://www.w3.org/1999/xlink" xml:space="preserve" xmlns:serif="http://www.serif.com/" style="fill-rule:evenodd;clip-rule:evenodd;stroke-linejoin:round;stroke-miterlimit:2;"><text x="9824.79px" y="28790.6px" style="font-family:'Lato-Bold', 'Lato', sans-serif;font-weight:700;font-size:4583.33px;">Linux</text><path d="M14339,6787c-84.804,7.708 -144.554,48.183 -179.246,121.421c-34.692,73.242 -67.458,109.862 -98.296,109.862c-38.546,7.709 -57.821,-11.566 -57.821,-57.82c0,-92.513 73.242,-150.334 219.721,-173.463l115.642,0Zm1006.08,161.896c-30.838,7.708 -75.167,-17.346 -132.988,-75.167c-57.82,-57.821 -125.279,-75.166 -202.37,-52.037c185.025,-84.804 308.375,-77.096 370.05,23.129c23.129,46.254 11.562,80.946 -34.692,104.075Zm-4059,4937.88c-30.837,-7.709 -53.967,3.858 -69.387,34.696c-15.417,30.837 -32.763,79.021 -52.038,144.55c-19.275,65.529 -40.475,117.566 -63.604,156.116c-23.125,38.546 -61.675,88.655 -115.638,150.334c-77.095,84.8 -80.95,131.058 -11.566,138.766c30.837,7.709 79.021,-19.275 144.554,-80.95c65.529,-61.675 113.712,-131.058 144.55,-208.15c7.708,-23.129 15.417,-50.112 23.129,-80.95c7.708,-30.837 15.417,-53.966 23.125,-69.383c7.713,-15.421 13.492,-32.767 17.346,-52.042c3.858,-19.27 5.783,-34.691 5.783,-46.254l0,-34.691l-11.562,-28.913l-34.692,-23.129Zm9887.29,4151.51c-0,-138.77 -212.009,-300.666 -636.025,-485.691c30.837,-115.642 59.75,-221.646 86.733,-318.013c26.983,-96.371 46.254,-196.591 57.821,-300.666c11.562,-104.08 23.125,-186.955 34.692,-248.63c11.562,-61.675 13.491,-148.404 5.783,-260.191c-7.713,-111.788 -11.567,-186.954 -11.567,-225.5c0,-38.546 -13.491,-123.35 -40.475,-254.409c-26.983,-131.062 -42.4,-210.083 -46.254,-237.066c-3.854,-26.984 -23.129,-123.35 -57.821,-289.1c-34.691,-165.754 -55.891,-267.904 -63.604,-306.45c-77.092,-370.05 -258.262,-767.084 -543.512,-1191.1c-285.246,-424.017 -562.784,-713.121 -832.613,-867.309c185.025,154.188 404.742,474.13 659.154,959.821c670.717,1248.92 878.871,2320.53 624.459,3214.82c-84.805,308.375 -277.538,470.275 -578.205,485.692c-238.991,30.837 -387.395,-40.475 -445.216,-213.938c-57.821,-173.458 -88.659,-495.325 -92.513,-965.6c-3.854,-470.275 -48.183,-882.725 -132.987,-1237.36c-69.384,-300.667 -144.55,-566.642 -225.5,-797.921c-80.95,-231.283 -156.117,-406.671 -225.5,-526.167c-69.384,-119.496 -129.134,-213.937 -179.242,-283.321c-50.112,-69.383 -100.225,-127.204 -150.333,-173.462c-50.113,-46.254 -79.021,-73.238 -86.734,-80.946c-107.929,-477.983 -227.425,-875.017 -358.487,-1191.1c-131.058,-316.083 -244.771,-531.946 -341.138,-647.588c-96.37,-115.641 -186.954,-242.845 -271.758,-381.616c-84.804,-138.767 -142.625,-292.959 -173.462,-462.563c-30.838,-161.896 -7.709,-368.125 69.387,-618.679c77.092,-250.554 94.438,-441.362 52.038,-572.425c-42.4,-131.058 -213.938,-227.425 -514.605,-289.1c-115.637,-23.129 -287.175,-92.512 -514.6,-208.154c-227.429,-115.642 -364.27,-177.317 -410.525,-185.025c-61.675,-7.708 -104.079,-107.933 -127.204,-300.667c-23.129,-192.733 7.709,-389.325 92.513,-589.766c84.8,-200.446 223.571,-304.525 416.304,-312.234c285.25,-23.129 481.837,92.513 589.771,346.925c107.933,254.409 123.35,477.979 46.254,670.717c-84.8,146.479 -92.513,248.629 -23.125,306.446c69.383,57.821 185.025,59.75 346.921,5.783c100.221,-30.837 150.333,-169.604 150.333,-416.308l0,-427.871c-38.546,-231.279 -90.583,-424.017 -156.117,-578.204c-65.529,-154.188 -146.475,-271.754 -242.845,-352.704c-96.367,-80.95 -186.95,-138.771 -271.755,-173.463c-84.804,-34.692 -188.879,-63.6 -312.229,-86.729c-824.908,61.675 -1167.98,578.204 -1029.2,1549.59c0,115.642 -3.858,173.463 -11.567,173.463c-69.383,-69.383 -183.095,-109.858 -341.141,-121.425c-158.042,-11.563 -285.246,-9.638 -381.613,5.783c-96.366,15.421 -156.116,-3.854 -179.246,-57.821c7.713,-439.433 -53.962,-786.358 -185.025,-1040.77c-131.058,-254.413 -304.52,-385.471 -520.383,-393.179c-208.154,-7.713 -368.125,98.291 -479.908,318.012c-111.788,219.717 -175.392,449.071 -190.809,688.063c-7.708,115.641 5.784,258.262 40.475,427.87c34.692,169.609 84.805,314.159 150.334,433.655c65.529,119.495 125.275,171.533 179.241,156.116c77.096,-23.129 138.771,-77.096 185.025,-161.9c30.838,-69.383 3.855,-100.221 -80.945,-92.512c-53.967,-0 -113.717,-55.892 -179.246,-167.679c-65.529,-111.788 -102.15,-240.917 -109.859,-387.396c-7.708,-169.609 26.984,-312.229 104.075,-427.871c77.096,-115.642 208.155,-169.608 393.18,-161.9c131.062,-0 235.137,80.95 312.233,242.846c77.092,161.9 113.712,312.233 109.858,451c-3.854,138.771 -9.637,223.575 -17.346,254.412c-169.608,115.638 -289.104,227.425 -358.487,335.359c-61.675,92.512 -167.679,183.095 -318.013,271.754c-150.333,88.658 -229.354,136.841 -237.062,144.554c-100.225,107.929 -159.971,212.008 -179.246,312.229c-19.271,100.221 9.638,169.604 86.733,208.154c107.93,61.675 204.296,136.842 289.1,225.5c84.805,88.659 146.48,161.896 185.025,219.717c38.55,57.821 109.859,107.933 213.938,150.333c104.075,42.4 240.917,67.459 410.525,75.167c362.342,15.417 755.521,-42.4 1179.54,-173.463c15.417,-7.708 104.075,-34.691 265.975,-80.95c161.896,-46.254 294.884,-86.729 398.959,-121.42c104.079,-34.692 217.791,-84.805 341.141,-150.334c123.35,-65.529 204.3,-132.987 242.846,-202.371c69.384,-107.933 146.479,-138.77 231.284,-92.512c38.545,23.129 63.6,55.892 75.166,98.296c11.563,42.4 0,88.654 -34.691,138.766c-34.692,50.113 -98.296,86.73 -190.809,109.859c-154.187,46.258 -371.979,129.133 -653.371,248.629c-281.395,119.496 -456.783,194.662 -526.166,225.5c-339.213,146.479 -609.042,235.137 -809.488,265.975c-192.733,38.546 -497.254,30.837 -913.562,-23.129c-77.096,-15.421 -111.788,-7.709 -104.079,23.129c7.712,30.837 73.241,104.075 196.591,219.717c192.734,177.316 451,262.12 774.796,254.408c131.058,-7.708 269.829,-34.692 416.304,-80.946c146.479,-46.258 285.25,-100.225 416.309,-161.9c131.058,-61.675 260.191,-129.129 387.395,-202.371c127.209,-73.237 242.846,-138.767 346.925,-196.587c104.075,-57.821 198.517,-104.079 283.321,-138.771c84.804,-34.692 152.259,-44.329 202.371,-28.908c50.113,15.416 82.875,57.82 98.296,127.204c-0,15.416 -3.854,32.762 -11.567,52.037c-7.708,19.275 -23.125,38.546 -46.254,57.821c-23.129,19.275 -46.258,36.621 -69.387,52.037c-23.125,15.421 -55.892,34.692 -98.292,57.821c-42.404,23.129 -77.096,40.475 -104.079,52.038c-26.984,11.566 -65.529,30.837 -115.642,57.821c-50.108,26.983 -86.729,44.329 -109.858,52.037c-215.863,107.933 -476.054,277.542 -780.575,508.821c-304.521,231.283 -560.859,397.033 -769.013,497.258c-208.154,100.221 -397.033,104.075 -566.641,11.563c-161.896,-84.804 -404.742,-366.196 -728.538,-844.179c-169.604,-238.992 -265.971,-323.796 -289.1,-254.409c-7.712,23.129 -11.567,61.675 -11.567,115.642c0,192.733 -57.82,410.525 -173.458,653.371c-115.642,242.846 -229.354,456.779 -341.142,641.804c-111.787,185.029 -192.737,408.6 -242.845,670.721c-50.113,262.117 -5.784,504.962 132.987,728.537c-177.317,46.255 -418.237,393.18 -722.758,1040.77c-304.521,647.588 -487.617,1191.1 -549.292,1630.54c-15.421,138.77 -21.204,404.741 -17.346,797.92c3.854,393.18 -17.346,620.609 -63.604,682.284c-61.675,185.025 -173.462,196.587 -335.358,34.691c-246.7,-238.991 -385.471,-601.333 -416.309,-1087.03c-15.416,-215.862 0,-431.725 46.259,-647.587c30.837,-146.479 26.983,-215.863 -11.567,-208.154c-15.417,7.708 -30.837,26.983 -46.254,57.821c-277.538,501.108 -238.992,1140.99 115.642,1919.64c38.545,92.513 134.912,200.446 289.1,323.796c154.187,123.35 246.7,200.446 277.537,231.283c154.188,177.313 555.079,526.163 1202.67,1046.55c647.587,520.383 1006.08,815.267 1075.46,884.65c123.35,115.642 190.804,262.121 202.371,439.438c11.563,177.316 -42.404,343.066 -161.9,497.254c-119.492,154.187 -294.883,242.846 -526.162,265.975c61.675,115.642 173.458,287.175 335.358,514.604c161.896,227.425 269.829,435.579 323.792,624.458c53.966,188.884 80.95,460.638 80.95,815.271c354.633,-185.025 381.616,-539.658 80.95,-1063.9c-30.838,-61.675 -71.313,-123.354 -121.425,-185.029c-50.109,-61.675 -86.73,-107.929 -109.859,-138.766c-23.129,-30.838 -30.837,-53.967 -23.129,-69.384c23.129,-38.55 73.242,-75.166 150.333,-109.862c77.096,-34.692 154.188,-25.054 231.284,28.912c354.633,400.888 994.512,539.659 1919.64,416.308c1025.35,-115.641 1707.63,-450.999 2046.85,-1006.08c177.317,-292.954 308.375,-408.595 393.179,-346.921c92.513,46.255 131.059,246.7 115.642,601.334c-7.708,192.733 -96.367,547.367 -265.975,1063.9c-69.383,177.316 -92.513,321.866 -69.383,433.654c23.129,111.787 115.641,171.533 277.537,179.242c23.129,-146.48 79.021,-443.288 167.679,-890.434c88.659,-447.146 140.696,-794.066 156.117,-1040.77c15.417,-161.895 -9.638,-445.216 -75.167,-849.958c-65.529,-404.746 -94.441,-778.65 -86.733,-1121.72c7.712,-343.07 96.367,-614.825 265.975,-815.27c115.642,-138.767 312.229,-208.155 589.771,-208.155c7.708,-285.245 140.696,-489.545 398.958,-612.895c258.267,-123.35 537.733,-163.825 838.4,-121.421c300.663,42.4 531.946,129.129 693.842,260.191Zm-7262.25,-9563.5c23.129,-131.062 13.491,-246.704 -28.909,-346.925c-42.4,-100.22 -86.729,-158.041 -132.987,-173.462c-69.383,-15.417 -104.075,11.567 -104.075,80.95c15.417,38.546 34.692,61.675 57.817,69.383c77.095,0 104.079,57.821 80.95,173.463c-23.13,154.187 7.708,231.283 92.512,231.283c23.129,0 34.692,-11.567 34.692,-34.692Zm4845.38,2278.12c-15.421,-61.675 -40.475,-106.004 -75.167,-132.987c-34.696,-26.983 -84.804,-46.258 -150.333,-57.821c-65.534,-11.562 -121.425,-32.767 -167.679,-63.604c-38.55,-23.125 -75.167,-53.963 -109.863,-92.513c-34.692,-38.545 -61.675,-69.383 -80.946,-92.512c-19.275,-23.125 -40.475,-48.183 -63.604,-75.167c-23.129,-26.983 -38.546,-42.4 -46.254,-46.254c-7.713,-3.854 -23.129,1.925 -46.258,17.346c-107.93,123.35 -80.95,291.029 80.95,503.037c161.895,212.009 312.229,333.434 451,364.271c69.383,7.709 125.275,-23.129 167.679,-92.512c42.4,-69.388 55.891,-146.479 40.475,-231.284Zm-2058.41,-2463.15c0,-84.8 -19.271,-159.966 -57.816,-225.5c-38.55,-65.529 -80.95,-113.712 -127.209,-144.55c-46.254,-30.837 -80.946,-42.4 -104.075,-34.691c-46.258,-0 -77.096,7.708 -92.512,23.129c-15.421,15.416 -15.421,30.837 -0,46.254c15.416,15.421 34.691,26.983 57.821,34.696c107.929,30.837 177.316,150.329 208.154,358.483c-0,23.129 30.837,15.421 92.512,-23.125c15.417,-15.421 23.125,-26.983 23.125,-34.696Zm624.463,-2694.43c-0,-15.417 -9.638,-34.692 -28.909,-57.821c-19.275,-23.125 -53.966,-50.108 -104.079,-80.946c-50.108,-30.837 -86.729,-53.966 -109.858,-69.387c-115.642,-115.638 -208.154,-173.459 -277.538,-173.459c-69.383,7.709 -113.712,36.617 -132.987,86.73c-19.275,50.112 -23.129,100.22 -11.563,150.333c11.563,50.112 9.634,98.296 -5.783,144.55c-7.708,30.837 -30.837,71.312 -69.383,121.425c-38.55,50.112 -61.675,84.804 -69.388,104.075c-7.708,19.275 3.859,52.042 34.696,98.296c30.838,23.129 61.675,23.129 92.513,-0c30.837,-23.129 73.237,-57.821 127.204,-104.075c53.966,-46.259 111.783,-80.95 173.462,-104.079c7.709,-7.709 42.4,-11.563 104.075,-11.563c61.675,0 119.496,-7.708 173.463,-23.129c53.962,-15.417 88.658,-42.4 104.075,-80.95Zm6533.71,15507.5c154.188,92.513 273.683,186.954 358.488,283.321c84.804,96.367 131.058,188.879 138.77,277.538c7.709,88.658 -1.929,175.387 -28.912,260.191c-26.983,84.804 -86.729,169.609 -179.242,254.413c-92.512,84.8 -183.1,159.966 -271.758,225.5c-88.658,65.529 -204.3,136.841 -346.921,213.933c-142.625,77.096 -264.046,140.696 -364.271,190.808c-100.221,50.113 -223.571,109.859 -370.05,179.242c-146.479,69.388 -250.554,119.496 -312.229,150.333c-292.958,146.48 -622.533,362.342 -988.733,647.592c-366.196,285.246 -657.225,531.946 -873.088,740.1c-131.058,123.35 -393.179,198.517 -786.358,225.5c-393.179,26.983 -736.246,-28.908 -1029.2,-167.679c-138.771,-69.383 -252.484,-159.971 -341.142,-271.754c-88.658,-111.788 -152.258,-210.084 -190.808,-294.888c-38.546,-84.8 -123.35,-159.966 -254.409,-225.5c-131.058,-65.529 -312.229,-102.146 -543.512,-109.858c-339.213,-7.709 -840.325,-11.563 -1503.33,-11.563c-146.475,0 -366.196,5.784 -659.15,17.346c-292.959,11.563 -516.53,21.2 -670.721,28.908c-339.213,7.713 -645.659,65.534 -919.342,173.463c-273.683,107.933 -479.912,223.575 -618.679,346.925c-138.771,123.35 -306.45,233.208 -503.042,329.575c-196.587,96.367 -402.812,140.696 -618.675,132.988c-223.575,-7.709 -651.446,-127.205 -1283.62,-358.488c-632.171,-231.283 -1194.95,-397.033 -1688.36,-497.254c-146.479,-30.838 -343.066,-67.458 -589.766,-109.863c-246.7,-42.4 -439.438,-77.091 -578.205,-104.075c-138.77,-26.983 -291.029,-63.604 -456.783,-109.858c-165.75,-46.258 -294.883,-102.15 -387.396,-167.679c-92.512,-65.529 -158.041,-140.696 -196.591,-225.5c-77.092,-177.317 -50.109,-433.654 80.95,-769.013c131.058,-335.358 200.445,-545.441 208.154,-630.241c7.708,-123.35 -7.709,-277.542 -46.259,-462.567c-38.545,-185.025 -77.091,-348.85 -115.641,-491.471c-38.546,-142.625 -55.892,-283.321 -52.038,-422.092c3.854,-138.766 44.329,-242.845 121.425,-312.229c107.929,-92.512 327.65,-146.479 659.154,-161.896c331.5,-15.42 562.784,-61.679 693.842,-138.77c231.283,-138.771 393.179,-273.684 485.696,-404.742c92.512,-131.063 138.767,-327.65 138.767,-589.771c161.895,562.788 38.545,971.383 -370.05,1225.8c-246.7,154.188 -566.642,212.008 -959.821,173.458c-262.121,-23.125 -427.871,15.421 -497.254,115.642c-100.225,115.642 -80.95,335.358 57.82,659.154c15.417,46.254 46.255,115.642 92.513,208.154c46.254,92.513 79.021,161.896 98.292,208.155c19.275,46.254 36.62,111.783 52.041,196.587c15.417,84.804 19.271,169.608 11.563,254.413c-0,115.637 -65.529,304.52 -196.588,566.637c-131.062,262.121 -185.029,447.146 -161.9,555.079c23.129,131.059 165.754,231.279 427.871,300.667c154.188,46.254 479.913,117.567 977.167,213.933c497.258,96.367 880.8,175.388 1150.63,237.067c185.025,46.254 470.271,131.058 855.742,254.408c385.47,123.35 703.483,212.009 954.037,265.975c250.554,53.963 464.492,69.384 641.808,46.254c331.505,-46.254 580.13,-154.187 745.884,-323.791c165.75,-169.609 254.408,-354.634 265.975,-555.079c11.562,-200.442 -17.346,-425.942 -86.734,-676.5c-69.383,-250.555 -142.62,-451 -219.716,-601.334c-77.096,-150.333 -154.188,-291.029 -231.284,-422.087c-932.833,-1464.78 -1584.28,-2397.62 -1954.33,-2798.51c-524.241,-570.491 -959.821,-724.679 -1306.74,-462.562c-84.805,69.383 -142.625,11.566 -173.463,-173.463c-23.129,-123.35 -30.837,-269.825 -23.129,-439.433c7.708,-223.571 46.258,-424.017 115.642,-601.333c69.383,-177.317 161.895,-358.488 277.537,-543.513c115.642,-185.025 200.446,-346.921 254.413,-485.692c61.675,-161.895 163.82,-439.437 306.445,-832.616c142.625,-393.179 256.338,-693.842 341.142,-901.996c84.804,-208.154 200.446,-443.292 346.921,-705.413c146.479,-262.116 296.812,-470.27 451,-624.458c848.033,-1102.45 1326.02,-1854.11 1433.95,-2255c-92.513,-863.45 -154.188,-2058.41 -185.025,-3584.87c-15.421,-693.845 77.092,-1277.83 277.537,-1751.96c200.442,-474.125 609.042,-876.942 1225.79,-1208.45c300.667,-161.9 701.554,-242.846 1202.67,-242.846c408.6,-7.708 817.196,44.329 1225.8,156.113c408.595,111.787 751.662,271.758 1029.2,479.912c439.433,323.792 792.137,792.138 1058.11,1405.04c265.975,612.896 379.688,1181.46 341.142,1705.7c-38.546,732.392 77.092,1557.3 346.921,2474.71c262.121,871.163 774.796,1711.49 1538.03,2520.97c424.016,454.855 807.558,1083.17 1150.63,1884.95c343.067,801.779 572.421,1538.03 688.062,2208.74c61.675,377.762 80.95,703.483 57.821,977.167c-23.129,273.683 -69.383,487.62 -138.771,641.808c-69.383,154.187 -146.479,238.992 -231.279,254.408c-77.096,15.421 -167.679,88.659 -271.758,219.717c-104.075,131.062 -208.154,267.904 -312.229,410.525c-104.079,142.625 -260.192,271.758 -468.346,387.4c-208.154,115.642 -443.292,169.604 -705.408,161.896c-138.771,-7.709 -260.196,-26.984 -364.271,-57.821c-104.075,-30.838 -190.809,-82.875 -260.192,-156.117c-69.383,-73.237 -121.425,-132.983 -156.117,-179.242c-34.691,-46.254 -79.02,-125.279 -132.987,-237.062c-53.963,-111.787 -88.658,-186.954 -104.075,-225.5c-169.608,-285.25 -327.65,-400.892 -474.129,-346.925c-146.479,53.967 -254.409,242.846 -323.796,566.642c-69.383,323.796 -42.4,697.7 80.95,1121.72c154.187,539.659 158.042,1291.33 11.567,2255c-77.096,501.109 -7.713,888.509 208.15,1162.19c215.866,273.683 497.258,400.888 844.179,381.613c346.925,-19.271 674.575,-156.113 982.95,-410.525c454.854,-377.759 799.85,-634.096 1034.99,-769.013c235.134,-134.912 634.096,-298.737 1196.88,-491.475c408.595,-138.767 705.408,-279.462 890.433,-422.087c185.025,-142.625 256.337,-275.613 213.937,-398.963c-42.404,-123.35 -138.77,-233.208 -289.104,-329.575c-150.333,-96.367 -348.85,-186.954 -595.55,-271.758c-254.412,-84.8 -445.216,-269.829 -572.425,-555.075c-127.204,-285.246 -185.025,-564.713 -173.458,-838.396c11.562,-273.683 71.312,-456.783 179.242,-549.296c7.708,238.992 38.545,456.783 92.512,653.371c53.967,196.592 109.858,352.704 167.679,468.346c57.821,115.641 136.842,225.5 237.067,329.579c100.221,104.075 181.171,177.317 242.846,219.717c61.675,42.4 144.55,92.512 248.625,150.333c104.079,57.821 167.679,94.442 190.808,109.858Z" style="fill-rule:nonzero;"/></svg>