<?xml version="1.0" encoding="UTF-8" standalone="no"?>
<!DOCTYPE svg PUBLIC "-//W3C//DTD SVG 1.1//EN" "http://www.w3.org/Graphics/SVG/1.1/DTD/svg11.dtd">
<svg width="100%" height="100%" viewBox="0 0 1890 1890" version="1.1" xmlns="http://www.w3.org/2000/svg" xmlns:xlink="http://www.w3.org/1999/xlink" xml:space="preserve" xmlns:serif="http://www.serif.com/" style="fill-rule:evenodd;clip-rule:evenodd;stroke-linejoin:round;stroke-miterlimit:2;">
    <g transform="matrix(1,0,0,1,11.2266,-14.4651)">
        <g transform="matrix(0.0190508,0,0,0.0190508,591.919,1696.97)">
            <g transform="matrix(13122.8,0,0,13122.8,34992,0)">
            </g>
            <text x="0px" y="0px" style="font-family:'Arial-BoldMT', 'Arial', sans-serif;font-weight:700;font-size:13122.8px;">Linux</text>
        </g>
        <g transform="matrix(0.0144956,0,0,0.0144956,-5.91494,13.1777)">
            <path d="M59745.8,28279.2C59392.5,28311.3 59143.5,28480 58998.9,28785.1C58854.4,29090.3 58717.9,29242.9 58589.4,29242.9C58428.8,29275 58348.5,29194.7 58348.5,29002C58348.5,28616.5 58653.6,28375.6 59264,28279.2L59745.8,28279.2ZM63937.8,28953.8C63809.3,28985.9 63624.6,28881.5 63383.7,28640.6C63142.8,28399.7 62861.7,28327.4 62540.5,28423.8C63311.4,28070.4 63825.4,28102.5 64082.4,28520.1C64178.7,28712.8 64130.5,28857.4 63937.8,28953.8L63937.8,28953.8ZM47025.3,49528.3C46896.8,49496.1 46800.4,49544.3 46736.2,49672.8C46672,49801.3 46599.7,50002.1 46519.4,50275.1C46439.1,50548.2 46350.7,50765 46254.3,50925.6C46158,51086.2 45997.4,51295 45772.5,51552C45451.3,51905.3 45435.2,52098.1 45724.3,52130.2C45852.8,52162.3 46053.6,52049.9 46326.6,51792.9C46599.7,51535.9 46800.4,51246.8 46928.9,50925.6C46961,50829.2 46993.2,50716.8 47025.3,50588.3C47057.4,50459.8 47089.5,50363.5 47121.7,50299.2C47153.8,50235 47177.9,50162.7 47193.9,50082.4C47210,50002.1 47218,49937.8 47218,49889.7L47218,49745.1L47169.8,49624.6L47025.3,49528.3ZM88222.3,66826.3C88222.3,66248.1 87338.9,65573.5 85572.2,64802.6C85700.7,64320.7 85821.2,63879 85933.6,63477.5C86046,63076 86126.3,62658.4 86174.5,62224.7C86222.7,61791.1 86270.9,61445.7 86319.1,61188.8C86367.2,60931.8 86375.3,60570.4 86343.2,60104.6C86311,59638.9 86295,59325.7 86295,59165.1C86295,59004.4 86238.7,58651.1 86126.3,58105C86013.9,57558.9 85949.6,57229.7 85933.6,57117.2C85917.5,57004.8 85837.2,56603.3 85692.7,55912.7C85548.1,55222 85459.8,54796.4 85427.7,54635.8C85106.4,53093.9 84351.6,51439.6 83163,49672.9C81974.5,47906.1 80818.1,46701.5 79693.8,46059.1C80464.7,46701.5 81380.2,48034.6 82440.3,50058.3C85234.9,55262.1 86102.2,59727.2 85042.2,63453.4C84688.8,64738.3 83885.8,65412.9 82633,65477.1C81637.2,65605.6 81018.8,65308.5 80777.9,64585.7C80537,63863 80408.5,62521.9 80392.4,60562.4C80376.4,58602.9 80191.7,56884.4 79838.3,55406.7C79549.2,54154 79236,53045.7 78898.8,52082.1C78561.5,51118.4 78248.3,50387.6 77959.2,49889.7C77670.1,49391.8 77421.1,48998.3 77212.3,48709.2C77003.5,48420.1 76794.7,48179.2 76585.9,47986.4C76377.1,47793.7 76256.7,47681.3 76224.5,47649.2C75774.8,45657.6 75276.9,44003.3 74730.8,42686.2C74184.8,41369.2 73711,40469.8 73309.4,39988C72907.9,39506.1 72530.5,38976.1 72177.1,38397.9C71823.8,37819.7 71582.8,37177.2 71454.4,36470.5C71325.9,35796 71422.2,34936.7 71743.5,33892.7C72064.7,32848.7 72137,32053.7 71960.3,31507.6C71783.6,30961.5 71068.9,30560 69816.1,30303C69334.3,30206.7 68619.5,29917.6 67671.9,29435.7C66724.3,28953.9 66154.1,28696.9 65961.4,28664.8C65704.4,28632.7 65527.7,28215.1 65431.4,27412C65335,26608.9 65463.5,25789.8 65816.9,24954.6C66170.2,24119.4 66748.4,23685.8 67551.5,23653.7C68740,23557.3 69559.1,24039.1 70008.8,25099.2C70458.6,26159.2 70522.8,27090.8 70201.6,27893.8C69848.2,28504.2 69816.1,28929.8 70105.2,29170.7C70394.3,29411.6 70876.2,29419.7 71550.7,29194.8C71968.3,29066.3 72177.1,28488.1 72177.1,27460.2L72177.1,25677.4C72016.5,24713.7 71799.7,23910.6 71526.6,23268.2C71253.6,22625.7 70916.3,22135.9 70514.8,21798.6C70113.2,21461.3 69735.8,21220.4 69382.5,21075.8C69029.1,20931.3 68595.5,20810.8 68081.5,20714.5C64644.4,20971.4 63214.9,23123.6 63793.2,27171.1C63793.2,27652.9 63777.1,27893.8 63745,27893.8C63455.9,27604.8 62982.1,27436.1 62323.6,27387.9C61665,27339.7 61135,27347.8 60733.5,27412C60332,27476.3 60083,27395.9 59986.6,27171.1C60018.8,25340.1 59761.8,23894.6 59215.7,22834.5C58669.6,21774.5 57946.9,21228.4 57047.5,21196.3C56180.1,21164.2 55513.6,21605.8 55047.8,22521.3C54582,23436.8 54317,24392.5 54252.8,25388.3C54220.7,25870.1 54276.9,26464.4 54421.4,27171.1C54566,27877.8 54774.8,28480.1 55047.8,28978C55320.9,29475.9 55569.8,29692.7 55794.7,29628.4C56115.9,29532.1 56372.9,29307.2 56565.6,28953.9C56694.1,28664.8 56581.7,28536.3 56228.3,28568.4C56003.5,28568.4 55754.5,28335.5 55481.5,27869.7C55208.4,27404 55055.8,26865.9 55023.7,26255.6C54991.6,25548.9 55136.2,24954.6 55457.4,24472.8C55778.6,23990.9 56324.7,23766.1 57095.6,23798.2C57641.7,23798.2 58075.4,24135.5 58396.6,24810.1C58717.8,25484.6 58870.4,26111 58854.3,26689.2C58838.3,27267.4 58814.2,27620.8 58782.1,27749.3C58075.4,28231.1 57577.5,28696.9 57288.4,29146.6C57031.4,29532.1 56589.7,29909.5 55963.3,30278.9C55336.9,30648.3 55007.7,30849.1 54975.6,30881.2C54557.9,31330.9 54309,31764.6 54228.7,32182.2C54148.4,32599.8 54268.9,32888.9 54590.1,33049.5C55039.8,33306.5 55441.3,33619.7 55794.7,33989.1C56148,34358.5 56405,34663.6 56565.6,34904.6C56726.2,35145.5 57023.3,35354.3 57457,35530.9C57890.7,35707.6 58460.8,35812 59167.5,35844.1C60677.3,35908.4 62315.5,35667.5 64082.3,35121.4C64146.5,35089.3 64515.9,34976.8 65190.5,34784.1C65865.1,34591.4 66419.2,34422.7 66852.8,34278.2C67286.5,34133.6 67760.3,33924.8 68274.3,33651.8C68788.2,33378.7 69125.5,33097.7 69286.1,32808.6C69575.2,32358.8 69896.4,32230.4 70249.8,32423.1C70410.4,32519.5 70514.8,32656 70563,32832.7C70611.2,33009.3 70563,33202.1 70418.4,33410.9C70273.9,33619.7 70008.9,33772.2 69623.4,33868.6C68981,34061.3 68073.5,34406.7 66901,34904.6C65728.6,35402.5 64997.8,35715.6 64708.7,35844.1C63295.3,36454.5 62171,36823.9 61335.8,36952.4C60532.7,37113 59263.9,37080.9 57529.3,36856C57208.1,36791.7 57063.5,36823.9 57095.6,36952.4C57127.8,37080.9 57400.8,37386 57914.8,37867.9C58717.8,38606.7 59793.9,38960 61143.1,38927.9C61689.2,38895.8 62267.4,38783.3 62877.7,38590.6C63488,38397.9 64066.2,38173 64612.3,37916C65158.4,37659 65696.4,37378 66226.4,37072.8C66756.5,36767.7 67238.3,36494.6 67672,36253.7C68105.6,36012.8 68499.1,35820 68852.5,35675.5C69205.8,35530.9 69486.9,35490.8 69695.7,35555C69904.5,35619.3 70041,35796 70105.2,36085.1C70105.2,36149.3 70089.2,36221.6 70057,36301.9C70024.9,36382.2 69960.7,36462.5 69864.3,36542.8C69767.9,36623.1 69671.6,36695.4 69575.2,36759.6C69478.9,36823.9 69342.3,36904.2 69165.7,37000.5C68989,37096.9 68844.4,37169.2 68732,37217.4C68619.6,37265.6 68459,37345.9 68250.1,37458.3C68041.4,37570.7 67888.8,37643 67792.4,37675.1C66893,38124.8 65808.8,38831.5 64540,39795.2C63271.2,40758.9 62203.1,41449.5 61335.8,41867.1C60468.5,42284.7 59681.5,42300.8 58974.8,41915.3C58300.2,41561.9 57288.4,40389.5 55939.2,38397.9C55232.5,37402.1 54831,37048.7 54734.6,37337.8C54702.5,37434.2 54686.4,37594.8 54686.4,37819.7C54686.4,38622.7 54445.5,39530.2 53963.7,40542.1C53481.9,41553.9 53008.1,42445.3 52542.3,43216.2C52076.5,43987.2 51739.2,44918.7 51530.4,46010.9C51321.6,47103.1 51506.3,48114.9 52084.5,49046.5C51345.7,49239.2 50341.9,50684.7 49073.1,53383C47804.2,56081.3 47041.3,58345.9 46784.3,60176.9C46720.1,60755.1 46696,61863.4 46712.1,63501.6C46728.1,65139.9 46639.8,66087.5 46447,66344.5C46190.1,67115.4 45724.3,67163.6 45049.7,66489C44021.8,65493.2 43443.6,63983.5 43315.1,61959.7C43250.9,61060.3 43315.1,60160.9 43507.8,59261.4C43636.3,58651.1 43620.3,58362 43459.6,58394.1C43395.4,58426.2 43331.2,58506.6 43266.9,58635C42110.5,60723 42271.1,63389.2 43748.8,66633.5C43909.4,67019 44310.9,67468.7 44953.3,67982.7C45595.8,68496.7 45981.3,68817.9 46109.7,68946.4C46752.2,69685.2 48422.6,71138.7 51120.9,73307C53819.1,75475.3 55312.9,76703.9 55601.9,76993C56115.9,77474.9 56397,78085.2 56445.2,78824C56493.3,79562.8 56268.5,80253.5 55770.6,80895.9C55272.7,81538.4 54541.9,81907.8 53578.2,82004.1C53835.2,82486 54301,83200.7 54975.6,84148.3C55650.1,85095.9 56099.8,85963.2 56324.7,86750.2C56549.5,87537.2 56662,88669.6 56662,90147.2C58139.6,89376.3 58252,87898.6 56999.3,85714.3C56870.8,85457.3 56702.1,85200.3 56493.3,84943.3C56284.5,84686.3 56132,84493.6 56035.6,84365.1C55939.2,84236.6 55907.1,84140.3 55939.2,84076C56035.6,83915.4 56244.4,83762.8 56565.6,83618.3C56886.8,83473.7 57208.1,83513.9 57529.3,83738.7C59006.9,85409.1 61673.1,85987.3 65527.8,85473.4C69800.1,84991.5 72642.9,83594.2 74056.3,81281.4C74795.1,80060.7 75341.2,79578.9 75694.6,79835.9C76080,80028.6 76240.7,80863.8 76176.4,82341.4C76144.3,83144.5 75774.9,84622.1 75068.2,86774.3C74779.1,87513.2 74682.7,88115.4 74779.1,88581.2C74875.5,89047 75260.9,89295.9 75935.5,89328.1C76031.9,88717.7 76264.7,87481 76634.2,85617.9C77003.6,83754.8 77220.4,82309.3 77284.6,81281.4C77348.9,80606.8 77244.5,79426.3 76971.4,77739.9C76698.4,76053.5 76577.9,74495.5 76610.1,73066.1C76642.2,71636.6 77011.6,70504.3 77718.3,69669.1C78200.1,69090.9 79019.2,68801.8 80175.7,68801.8C80207.8,67613.3 80761.9,66762 81838,66248.1C82914.1,65734.1 84078.6,65565.5 85331.3,65742.1C86584.1,65918.8 87547.8,66280.2 88222.3,66826.3L88222.3,66826.3L88222.3,66826.3ZM57962.9,26978.4C58059.3,26432.3 58019.1,25950.4 57842.4,25532.8C57665.8,25115.3 57481.1,24874.3 57288.3,24810.1C56999.2,24745.9 56854.7,24858.3 56854.7,25147.4C56918.9,25308 56999.2,25404.4 57095.6,25436.5C57416.8,25436.5 57529.3,25677.4 57432.9,26159.2C57336.5,26801.7 57465,27122.9 57818.3,27122.9C57914.7,27122.9 57962.9,27074.7 57962.9,26978.4L57962.9,26978.4ZM78152,36470.5C78087.7,36213.6 77983.4,36028.9 77838.8,35916.4C77694.2,35804 77485.5,35723.7 77212.4,35675.5C76939.4,35627.3 76706.5,35539 76513.8,35410.5C76353.1,35314.1 76200.6,35185.6 76056,35025C75911.4,34864.4 75799,34735.9 75718.7,34639.5C75638.4,34543.2 75550.1,34438.8 75453.7,34326.4C75357.3,34213.9 75293.1,34149.7 75261,34133.6C75228.8,34117.6 75164.6,34141.6 75068.2,34205.9C74618.5,34719.9 74730.9,35418.5 75405.5,36301.9C76080.1,37185.3 76706.5,37691.2 77284.7,37819.7C77573.8,37851.8 77806.7,37723.3 77983.4,37434.2C78160,37145.1 78216.2,36823.9 78152,36470.5L78152,36470.5ZM69575.3,26207.4C69575.3,25854.1 69495,25540.9 69334.4,25267.9C69173.8,24994.8 68997.1,24794.1 68804.4,24665.6C68611.6,24537.1 68467.1,24488.9 68370.7,24521C68178,24521 68049.5,24553.1 67985.2,24617.4C67921,24681.6 67921,24745.9 67985.2,24810.1C68049.5,24874.4 68129.8,24922.5 68226.2,24954.7C68675.9,25083.2 68965,25581 69093.5,26448.4C69093.5,26544.7 69222,26512.6 69478.9,26352C69543.2,26287.7 69575.3,26239.6 69575.3,26207.4L69575.3,26207.4ZM72177.2,14980.6C72177.2,14916.4 72137.1,14836.1 72056.8,14739.7C71976.5,14643.4 71831.9,14530.9 71623.1,14402.4C71414.3,14274 71261.7,14177.6 71165.4,14113.3C70683.5,13631.5 70298.1,13390.6 70009,13390.6C69719.9,13422.7 69535.2,13543.2 69454.8,13752C69374.5,13960.8 69358.5,14169.5 69406.7,14378.3C69454.8,14587.1 69446.8,14787.9 69382.6,14980.6C69350.4,15109.1 69254.1,15277.8 69093.5,15486.6C68932.8,15695.4 68836.5,15839.9 68804.4,15920.2C68772.2,16000.5 68820.4,16137.1 68948.9,16329.8C69077.4,16426.2 69205.9,16426.2 69334.4,16329.8C69462.9,16233.4 69639.5,16088.9 69864.4,15896.1C70089.3,15703.4 70330.2,15558.8 70587.2,15462.5C70619.3,15430.4 70763.8,15414.3 71020.8,15414.3C71277.8,15414.3 71518.7,15382.2 71743.6,15317.9C71968.4,15253.7 72113,15141.3 72177.2,14980.6L72177.2,14980.6ZM99401,79595.2C100043,79980.7 100541,80374.2 100895,80775.7C101248,81177.3 101441,81562.7 101473,81932.1C101505,82301.6 101465,82662.9 101352,83016.3C101240,83369.6 100991,83723 100606,84076.3C100220,84429.7 99842.7,84742.9 99473.3,85015.9C99103.9,85288.9 98622,85586.1 98027.8,85907.3C97433.5,86228.5 96927.6,86493.5 96510,86702.3C96092.4,86911.1 95578.4,87160.1 94968.1,87449.2C94357.8,87738.3 93924.1,87947.1 93667.2,88075.6C92446.5,88685.9 91073.3,89585.3 89547.4,90773.9C88021.6,91962.4 86809,92990.3 85909.6,93857.6C85363.5,94371.6 84271.3,94684.8 82633.1,94797.2C80994.8,94909.6 79565.4,94676.7 78344.8,94098.5C77766.5,93809.4 77292.7,93432 76923.3,92966.2C76553.9,92500.4 76288.9,92090.9 76128.3,91737.5C75967.7,91384.2 75614.3,91071 75068.3,90797.9C74522.2,90524.9 73767.3,90372.3 72803.6,90340.2C71390.2,90308.1 69302.3,90292 66539.7,90292C65929.4,90292 65013.9,90316.1 63793.3,90364.3C62572.6,90412.5 61641.1,90452.6 60998.6,90484.7C59585.2,90516.9 58308.4,90757.8 57168,91207.5C56027.7,91657.2 55168.4,92139.1 54590.2,92653C54012,93167 53313.3,93624.7 52494.2,94026.3C51675.1,94427.8 50815.8,94612.5 49916.4,94580.4C48984.8,94548.2 47202,94050.3 44568,93086.7C41933.9,92123 39589,91432.4 37533.1,91014.8C36922.8,90886.3 36103.7,90733.7 35075.8,90557C34047.8,90380.4 33244.8,90235.8 32666.6,90123.4C32088.4,90010.9 31454,89858.4 30763.3,89665.6C30072.7,89472.9 29534.6,89240 29149.2,88967C28763.7,88693.9 28490.7,88380.7 28330,88027.4C28008.8,87288.6 28121.2,86220.5 28667.3,84823.2C29213.4,83425.8 29502.5,82550.5 29534.6,82197.2C29566.8,81683.2 29502.5,81040.7 29341.9,80269.8C29181.3,79498.9 29020.7,78816.3 28860.1,78222C28699.4,77627.7 28627.2,77041.5 28643.2,76463.3C28659.3,75885.1 28827.9,75451.4 29149.2,75162.3C29598.9,74776.9 30514.4,74552 31895.6,74487.8C33276.9,74423.5 34240.6,74230.8 34786.6,73909.5C35750.3,73331.3 36424.9,72769.2 36810.4,72223.1C37195.8,71677 37388.6,70857.9 37388.6,69765.7C38063.1,72110.7 37549.2,73813.2 35846.7,74873.2C34818.8,75515.7 33485.7,75756.6 31847.4,75596C30755.3,75499.6 30064.6,75660.2 29775.6,76077.8C29357.9,76559.7 29438.3,77475.2 30016.5,78824.3C30080.7,79017 30209.2,79306.1 30401.9,79691.6C30594.7,80077.1 30731.2,80366.2 30811.5,80558.9C30891.8,80751.6 30964.1,81024.7 31028.3,81378C31092.6,81731.4 31108.6,82084.7 31076.5,82438.1C31076.5,82919.9 30803.5,83706.9 30257.4,84799.1C29711.3,85891.2 29486.4,86662.2 29582.8,87111.9C29679.2,87658 30273.4,88075.6 31365.6,88364.7C32008.1,88557.4 33365.2,88854.5 35437.1,89256.1C37509,89657.6 39107.1,89986.9 40231.4,90243.9C41002.4,90436.6 42190.9,90789.9 43797,91303.9C45403.1,91817.8 46728.2,92187.3 47772.2,92412.1C48816.1,92637 49707.5,92701.2 50446.4,92604.8C51827.6,92412.1 52863.6,91962.4 53554.2,91255.7C54244.8,90549 54614.2,89778.1 54662.4,88942.9C54710.6,88107.7 54590.2,87168.1 54301.1,86124.1C54012,85080.1 53706.8,84245 53385.6,83618.6C53064.3,82992.2 52743.1,82405.9 52421.9,81859.9C48535.1,75756.6 45820.7,71869.8 44278.8,70199.4C42094.5,67822.3 40279.6,67179.9 38834.1,68272C38480.7,68561.1 38239.8,68320.2 38111.3,67549.3C38015,67035.3 37982.8,66425 38015,65718.3C38047.1,64786.7 38207.7,63951.6 38496.8,63212.7C38785.9,62473.9 39171.4,61719 39653.2,60948.1C40135,60177.2 40488.4,59502.6 40713.3,58924.4C40970.2,58249.8 41395.8,57093.4 41990.1,55455.2C42584.4,53816.9 43058.2,52564.1 43411.5,51696.8C43764.9,50829.5 44246.7,49849.8 44857,48757.6C45467.4,47665.5 46093.7,46798.2 46736.2,46155.7C50269.7,41562.2 52261.3,38430.2 52711,36759.9C52325.5,33162.2 52068.5,28183.2 51940,21822.9C51875.8,18931.9 52261.3,16498.6 53096.4,14523C53931.6,12547.5 55634.1,10869.1 58203.9,9487.84C59456.7,8813.25 61127,8475.98 63215,8475.98C64917.5,8443.86 66620,8660.68 68322.5,9126.45C70025,9592.23 71454.5,10258.8 72610.9,11126.1C74441.8,12475.2 75911.4,14426.7 77019.6,16980.4C78127.9,19534.1 78601.7,21903.2 78441.1,24087.5C78280.5,27139.1 78762.3,30576.2 79886.6,34398.8C80978.7,38028.6 83114.9,41530 86295,44902.8C88061.8,46798 89659.9,49416 91089.3,52756.7C92518.8,56097.5 93474.4,59165.2 93956.2,61959.8C94213.2,63533.8 94293.5,64891 94197.2,66031.4C94100.8,67171.7 93908.1,68063.1 93619,68705.6C93329.9,69348 93008.6,69701.4 92655.3,69765.6C92334.1,69829.8 91956.6,70135 91523,70681.1C91089.3,71227.2 90655.7,71797.3 90222,72391.6C89788.4,72985.9 89137.9,73523.9 88270.6,74005.8C87403.3,74487.6 86423.5,74712.4 85331.4,74680.3C84753.2,74648.2 84247.2,74567.9 83813.6,74439.4C83379.9,74310.9 83018.5,74094.1 82729.4,73788.9C82440.3,73483.8 82223.5,73234.8 82079,73042.1C81934.4,72849.4 81749.7,72520.1 81524.8,72054.3C81300,71588.5 81155.4,71275.3 81091.2,71114.7C80384.5,69926.2 79726,69444.4 79115.7,69669.2C78505.3,69894.1 78055.6,70681.1 77766.5,72030.2C77477.4,73379.4 77589.8,74937.3 78103.8,76704.1C78746.2,78952.6 78762.3,82084.6 78152,86099.9C77830.8,88187.8 78119.9,89802 79019.3,90942.3C79918.7,92082.7 81091.2,92612.7 82536.7,92532.4C83982.2,92452.1 85347.4,91881.9 86632.3,90821.9C88527.5,89247.9 89965,88179.8 90944.8,87617.7C91924.5,87055.5 93586.8,86372.9 95931.8,85569.8C97634.3,84991.7 98871,84405.4 99641.9,83811.1C100413,83216.9 100710,82662.8 100533,82148.8C100357,81634.8 99955.1,81177.1 99328.7,80775.6C98702.3,80374 97875.2,79996.6 96847.3,79643.2C95787.2,79289.9 94992.2,78518.9 94462.2,77330.4C93932.1,76141.9 93691.2,74977.5 93739.4,73837.1C93787.6,72696.8 94036.6,71933.8 94486.3,71548.4C94518.4,72544.2 94646.9,73451.6 94871.7,74270.8C95096.6,75089.9 95329.5,75740.4 95570.4,76222.2C95811.3,76704 96140.6,77161.8 96558.2,77595.4C96975.8,78029.1 97313.1,78334.3 97570,78510.9C97827,78687.6 98172.3,78896.4 98606,79137.3C99039.6,79378.2 99304.6,79530.8 99401,79595.1L99401,79595.1L99401,79595.2Z" style="fill-rule:nonzero;"/>
        </g>
    </g>
</svg>
